<?xml version="1.0" encoding="UTF-8"?>
<svg xmlns="http://www.w3.org/2000/svg" xmlns:cc="http://creativecommons.org/ns#" xmlns:dc="http://purl.org/dc/elements/1.1/" xmlns:rdf="http://www.w3.org/1999/02/22-rdf-syntax-ns#" width="20.301mm" height="3.2322mm" version="1.1" viewBox="0 0 20.301426 3.2321501">
    <metadata>
        <rdf:RDF>
            <cc:Work rdf:about="">
                <dc:format>
                    image/svg+xml
                </dc:format>
                <dc:type rdf:resource="http://purl.org/dc/dcmitype/StillImage"/>
                <dc:title/>
            </cc:Work>
        </rdf:RDF>
    </metadata>
    <g fill="#ffffff" aria-label="nevızen">
        <path d="m1.8414 0.041378q0.5588 0 0.83185 0.3175 0.27305 0.3175 0.27305 0.95885v1.5621q0 0.1778-0.10795 0.2794-0.1016 0.1016-0.28575 0.1016t-0.2921-0.1016-0.10795-0.2794v-1.5176q0-0.36195-0.1397-0.52705-0.13335-0.1651-0.42545-0.1651-0.3429 0-0.55245 0.2159-0.2032 0.2159-0.2032 0.57785v1.416q0 0.1778-0.10795 0.2794t-0.2921 0.1016q-0.18415 0-0.2921-0.1016-0.1016-0.1016-0.1016-0.2794v-2.4575q0-0.1651 0.10795-0.2667t0.2921-0.1016q0.1651 0 0.2667 0.1016 0.10795 0.09525 0.10795 0.254v0.17145q0.15875-0.26035 0.42545-0.40005 0.2667-0.1397 0.60325-0.1397z"/>
        <path d="m5.9062 2.3718q0.10795 0 0.17145 0.08255 0.06985 0.08255 0.06985 0.22225 0 0.19685-0.23495 0.3302-0.2159 0.12065-0.48895 0.19685-0.27305 0.06985-0.5207 0.06985-0.7493 0-1.1874-0.4318t-0.43815-1.1811q0-0.47625 0.1905-0.84455 0.1905-0.3683 0.5334-0.5715 0.34925-0.2032 0.7874-0.2032 0.4191 0 0.73025 0.18415 0.31115 0.18415 0.4826 0.5207 0.17145 0.33655 0.17145 0.79375 0 0.27305-0.2413 0.27305h-1.8732q0.0381 0.43815 0.24765 0.6477 0.20955 0.2032 0.6096 0.2032 0.2032 0 0.3556-0.0508 0.15875-0.0508 0.3556-0.1397 0.1905-0.1016 0.2794-0.1016zm-1.0986-1.7717q-0.32385 0-0.5207 0.2032-0.1905 0.2032-0.2286 0.5842h1.4351q-0.0127-0.38735-0.1905-0.5842-0.1778-0.2032-0.4953-0.2032z"/>
        <path d="m8.8175 0.28268q0.0508-0.1143 0.13335-0.17145 0.0889-0.05715 0.1905-0.05715 0.14605 0 0.26035 0.1016 0.12065 0.09525 0.12065 0.2413 0 0.0762-0.0381 0.1524l-1.1748 2.4575q-0.05715 0.12065-0.1651 0.18415-0.1016 0.0635-0.2286 0.0635-0.12065 0-0.23495-0.0635-0.10795-0.0635-0.1651-0.18415l-1.1811-2.4575q-0.03175-0.0635-0.03175-0.14605 0-0.14605 0.12065-0.24765 0.127-0.1016 0.28575-0.1016 0.2286 0 0.33655 0.22225l0.889 1.9622z"/>
        <path d="m10.312 3.2608q-0.17145 0-0.28575-0.09525-0.10795-0.1016-0.10795-0.28575v-2.4511q0-0.18415 0.10795-0.2794 0.1143-0.09525 0.28575-0.09525t0.28575 0.09525 0.1143 0.2794v2.4511q0 0.18415-0.1143 0.28575-0.1143 0.09525-0.28575 0.09525z"/>
        <path d="m13.732 2.6258q0.3556 0 0.3556 0.29845 0 0.1397-0.0889 0.22225-0.0889 0.0762-0.2667 0.0762h-2.1209q-0.15875 0-0.26035-0.1016t-0.1016-0.2413q0-0.14605 0.1143-0.2794l1.632-1.886h-1.416q-0.1778 0-0.2667-0.0762t-0.0889-0.22225q0-0.14605 0.0889-0.22225t0.2667-0.0762h2.051q0.1651 0 0.26035 0.1016 0.1016 0.09525 0.1016 0.2413 0 0.1524-0.10795 0.2794l-1.6383 1.886z"/>
        <path d="m16.765 2.3718q0.10795 0 0.17145 0.08255 0.06985 0.08255 0.06985 0.22225 0 0.19685-0.23495 0.3302-0.2159 0.12065-0.48895 0.19685-0.27305 0.06985-0.5207 0.06985-0.7493 0-1.1874-0.4318t-0.43815-1.1811q0-0.47625 0.1905-0.84455 0.1905-0.3683 0.5334-0.5715 0.34925-0.2032 0.7874-0.2032 0.4191 0 0.73025 0.18415 0.31115 0.18415 0.4826 0.5207 0.17145 0.33655 0.17145 0.79375 0 0.27305-0.2413 0.27305h-1.8732q0.0381 0.43815 0.24765 0.6477 0.20955 0.2032 0.6096 0.2032 0.2032 0 0.3556-0.0508 0.15875-0.0508 0.3556-0.1397 0.1905-0.1016 0.2794-0.1016zm-1.0986-1.7717q-0.32385 0-0.5207 0.2032-0.1905 0.2032-0.2286 0.5842h1.4351q-0.0127-0.38735-0.1905-0.5842-0.1778-0.2032-0.4953-0.2032z"/>
        <path d="m19.235 0.041378q0.5588 0 0.83185 0.3175 0.27305 0.3175 0.27305 0.95885v1.5621q0 0.1778-0.10795 0.2794-0.1016 0.1016-0.28575 0.1016t-0.2921-0.1016-0.10795-0.2794v-1.5176q0-0.36195-0.1397-0.52705-0.13335-0.1651-0.42545-0.1651-0.3429 0-0.55245 0.2159-0.2032 0.2159-0.2032 0.57785v1.416q0 0.1778-0.10795 0.2794t-0.2921 0.1016-0.2921-0.1016q-0.1016-0.1016-0.1016-0.2794v-2.4575q0-0.1651 0.10795-0.2667t0.2921-0.1016q0.1651 0 0.2667 0.1016 0.10795 0.09525 0.10795 0.254v0.17145q0.15875-0.26035 0.42545-0.40005t0.60325-0.1397z"/>
    </g>
</svg>
